<?xml version="1.0" standalone="no"?>
<!DOCTYPE svg PUBLIC "-//W3C//DTD SVG 20010904//EN"
 "http://www.w3.org/TR/2001/REC-SVG-20010904/DTD/svg10.dtd">
<svg version="1.0" xmlns="http://www.w3.org/2000/svg"
 width="432.000000pt" height="577.000000pt" viewBox="0 0 432.000000 577.000000"
 preserveAspectRatio="xMidYMid meet">

<g transform="translate(0.000000,577.000000) scale(0.100000,-0.100000)"
fill="#000000" stroke="none">
<path d="M2028 5440 c-18 -19 -40 -30 -57 -30 -17 0 -36 -9 -47 -22 l-19 -23
23 19 c35 30 37 11 3 -22 -17 -16 -31 -34 -31 -41 0 -19 -20 -12 -30 12 -9 20
-10 19 -8 -10 2 -24 -4 -37 -25 -53 -28 -22 -38 -72 -17 -85 8 -5 8 -11 1 -19
-11 -14 -3 -83 10 -92 5 -3 9 -16 9 -30 0 -14 5 -34 10 -44 7 -13 7 -21 0 -25
-15 -9 -11 -67 6 -95 8 -14 13 -17 10 -7 -7 22 3 49 16 41 5 -3 7 -17 4 -30
-4 -16 1 -31 19 -50 25 -27 32 -44 17 -44 -4 0 -12 3 -18 8 -5 4 1 -2 13 -13
13 -12 23 -24 23 -28 0 -3 12 -32 26 -63 14 -31 24 -57 22 -59 -2 -1 -31 -17
-65 -34 -69 -34 -91 -59 -100 -114 -3 -20 -10 -40 -14 -43 -5 -3 -9 -16 -9
-29 0 -15 -9 -30 -22 -38 -13 -8 -56 -33 -96 -57 -40 -23 -81 -55 -91 -69 -43
-61 -78 -243 -112 -591 -5 -52 -14 -110 -20 -128 -6 -19 -9 -51 -5 -71 4 -25
1 -44 -10 -59 -11 -17 -13 -30 -6 -50 6 -19 5 -33 -4 -47 -8 -12 -16 -82 -22
-185 -7 -119 -14 -173 -26 -195 -20 -38 -21 -84 -1 -113 11 -15 17 -54 20
-133 2 -61 6 -114 9 -117 4 -3 6 9 6 27 0 56 14 71 70 71 46 0 52 -3 69 -31
11 -18 18 -40 16 -51 -2 -10 0 -16 5 -13 5 3 7 -7 6 -22 -2 -16 -4 -49 -5 -75
-1 -27 -6 -48 -13 -51 -7 -2 -5 -3 5 -2 11 2 17 -3 17 -16 0 -10 -6 -19 -12
-19 -9 0 -9 -3 1 -9 9 -6 11 -16 7 -27 -7 -18 -9 -17 -27 5 -10 13 -19 38 -19
57 0 19 -7 50 -14 69 -17 40 -40 48 -30 11 3 -15 1 -25 -8 -28 -14 -6 -16 -54
-4 -108 5 -19 26 -52 47 -75 49 -51 49 -60 2 -34 -35 20 -78 58 -78 69 0 21
-51 127 -59 123 -6 -4 -7 1 -2 12 4 11 9 40 11 65 5 43 4 42 -10 -14 -15 -58
-15 -60 11 -124 36 -89 40 -95 100 -131 37 -23 58 -30 77 -26 27 7 45 48 29
68 -11 14 -16 106 -14 218 1 42 -2 88 -7 101 -13 34 11 165 34 182 12 8 21 34
26 71 4 32 12 62 18 68 13 13 8 -173 -9 -333 -17 -156 -7 -434 21 -620 13 -80
24 -198 25 -262 2 -71 8 -126 15 -140 8 -14 14 -65 15 -128 0 -58 9 -181 19
-273 16 -140 17 -176 6 -220 -23 -97 -24 -109 -11 -148 12 -34 11 -41 -3 -57
-11 -12 -17 -36 -17 -65 0 -26 -5 -47 -10 -47 -6 0 -27 -17 -48 -37 -80 -82
-151 -133 -226 -164 -68 -28 -96 -58 -96 -105 0 -42 24 -59 104 -73 73 -13
136 -13 201 2 45 11 37 12 -90 12 -166 0 -205 11 -205 57 0 17 4 27 10 23 6
-4 7 1 3 10 -5 16 -3 16 23 2 58 -29 191 -30 359 -2 24 4 26 3 10 -4 -30 -14
-6 -12 45 3 25 8 36 15 25 16 l-20 1 20 9 c11 5 27 9 35 9 13 1 13 0 0 -9 -8
-5 -11 -10 -7 -10 15 0 210 41 219 46 4 3 8 -6 8 -20 0 -20 -8 -29 -32 -40
-18 -8 -26 -15 -18 -15 9 -1 26 6 39 16 23 15 24 20 18 109 -3 51 -1 112 4
135 7 32 7 50 -2 67 -11 19 -10 29 5 57 18 33 18 37 1 91 -19 62 -18 150 6
359 11 92 10 119 -5 220 -11 66 -16 133 -12 156 3 22 2 47 -3 57 -13 26 5 275
33 456 24 148 30 176 40 165 18 -19 166 -589 166 -641 0 -26 9 -57 25 -84 21
-36 26 -62 34 -171 5 -70 22 -184 36 -253 31 -142 36 -243 16 -313 -12 -40
-12 -52 -1 -75 8 -15 14 -57 15 -94 1 -48 6 -73 18 -86 22 -24 23 -131 2 -233
-17 -86 -11 -124 27 -152 53 -40 225 -32 289 13 40 29 47 87 21 165 -29 84
-46 192 -34 208 15 20 22 88 10 110 -7 14 -7 30 2 59 11 32 11 47 -3 98 -14
48 -17 107 -17 297 0 204 -3 249 -20 313 -11 41 -20 91 -20 110 0 19 -7 46
-15 60 -8 14 -14 48 -15 76 0 28 -7 71 -15 94 -12 33 -15 92 -15 261 l0 219
48 24 c72 37 125 90 120 121 -3 13 -2 22 2 20 15 -9 20 27 20 131 0 57 4 104
9 104 14 0 23 30 31 113 8 69 12 81 40 107 27 25 31 35 29 75 -2 25 3 51 9 57
7 7 12 30 12 52 0 23 7 75 16 116 22 106 23 332 1 402 -9 29 -30 132 -47 228
-39 221 -81 391 -116 464 -32 68 -72 105 -164 151 -49 25 -70 41 -70 54 0 10
-8 29 -19 42 -10 13 -24 42 -30 64 -7 22 -17 50 -23 62 -13 26 -78 50 -155 60
-51 6 -53 7 -53 37 0 50 10 72 39 89 16 9 34 34 44 59 13 34 14 39 2 24 -8
-11 -15 -18 -16 -15 -4 23 -5 67 -1 77 3 9 11 4 23 -14 l17 -27 7 37 c4 20 5
40 1 43 -3 4 -6 -6 -6 -21 0 -15 -4 -25 -9 -22 -5 3 -7 15 -4 26 6 23 -7 26
-26 8 -10 -11 -11 -10 -6 5 4 9 16 17 27 17 10 0 16 4 13 10 -6 10 13 88 27
107 5 6 5 14 0 17 -5 3 -7 37 -4 75 4 60 2 71 -17 90 -11 11 -21 30 -21 41 0
17 -3 18 -19 8 -16 -10 -24 -6 -58 30 -26 27 -35 42 -24 42 32 0 -8 23 -43 24
-23 1 -41 10 -55 26 -12 14 -19 18 -16 9 3 -9 -1 -21 -9 -28 -12 -10 -21 -9
-47 4 -22 12 -45 15 -73 12 -39 -5 -40 -5 -16 8 14 8 19 14 12 15 -8 0 -27
-13 -44 -30z m-185 -200 c-3 -12 -8 -19 -11 -16 -5 6 5 36 12 36 2 0 2 -9 -1
-20z m369 -40 c17 -46 46 -68 83 -63 31 4 33 3 31 -21 -2 -14 2 -37 9 -50 14
-26 25 -146 14 -146 -4 0 -6 -6 -6 -12 2 -26 -16 -93 -28 -108 -7 -8 -20 -31
-28 -50 l-15 -35 2 45 1 44 -43 10 c-33 7 -41 13 -37 26 4 13 -1 16 -23 15
-16 -1 -33 -5 -39 -8 -7 -4 -15 -3 -18 3 -4 6 -15 8 -26 5 -12 -4 -19 -2 -19
6 0 7 -3 10 -6 7 -3 -4 -1 -15 5 -26 9 -18 6 -22 -30 -36 -22 -9 -42 -23 -46
-32 -5 -13 -8 -12 -25 6 -33 35 -48 98 -49 199 0 53 2 110 4 126 2 17 5 35 5
41 1 7 13 15 27 18 15 4 27 16 31 31 7 28 17 30 133 30 80 0 84 -1 93 -25z
m78 -30 c0 -5 -4 -10 -9 -10 -6 0 -13 5 -16 10 -3 6 1 10 9 10 9 0 16 -4 16
-10z m-414 -212 c4 -6 3 -8 -4 -4 -7 4 -12 -6 -15 -26 -4 -33 -4 -33 -5 5 -2
36 10 49 24 25z m522 -129 c-2 -6 -7 -10 -12 -9 -5 1 -13 -4 -17 -12 -6 -9 -9
-7 -9 10 0 16 6 22 21 22 11 0 19 -5 17 -11z m-203 -49 c14 -6 -2 -9 -50 -8
-50 0 -63 2 -45 8 33 11 70 11 95 0z m61 -52 c-11 -65 -32 -92 -82 -104 -24
-6 -49 -7 -56 -2 -7 4 -23 8 -35 8 -25 0 -67 75 -61 111 3 21 3 21 28 2 16
-13 42 -20 75 -20 52 -2 48 1 -19 12 -57 9 -26 25 49 25 53 -1 58 -2 42 -14
-10 -8 -14 -17 -9 -20 5 -3 20 6 32 19 34 36 44 31 36 -17z m64 -116 c0 -20 4
-51 9 -69 9 -29 5 -36 -44 -90 -58 -65 -98 -83 -179 -83 -32 0 -48 5 -52 15
-4 8 -10 13 -14 10 -15 -9 -24 18 -26 80 -1 33 -4 83 -8 110 -6 43 -5 47 6 30
7 -11 13 -26 14 -34 4 -22 73 -121 85 -121 6 0 9 6 6 14 -4 10 6 15 35 19 22
3 51 16 65 29 27 25 59 78 55 91 -1 5 2 6 7 3 5 -4 12 3 16 14 10 33 25 23 25
-18z m-469 -95 c-10 -9 -11 -8 -5 6 3 10 9 15 12 12 3 -3 0 -11 -7 -18z m696
-19 c-3 -7 -5 -2 -5 12 0 14 2 19 5 13 2 -7 2 -19 0 -25z m31 -43 c-3 -3 -9 2
-12 12 -6 14 -5 15 5 6 7 -7 10 -15 7 -18z m97 -103 c-3 -3 -11 0 -18 7 -9 10
-8 11 6 5 10 -3 15 -9 12 -12z m-886 5 c-2 -2 -17 -11 -34 -21 l-30 -17 24 20
c13 12 28 21 34 21 6 0 8 -1 6 -3z m-110 -70 c-2 -2 -17 -11 -34 -22 l-30 -18
19 21 c11 12 26 22 34 22 9 0 13 -1 11 -3z m1156 -78 c10 -30 0 -33 -13 -4 -6
14 -7 25 -2 25 5 0 12 -9 15 -21z m-1270 -99 c-4 -17 -9 -29 -12 -26 -3 2 -2
19 2 36 4 17 9 29 12 26 3 -2 2 -19 -2 -36z m1315 -42 c0 -7 3 -24 6 -38 4
-18 3 -21 -4 -10 -17 27 -24 60 -13 60 6 0 11 -6 11 -12z m-540 -17 c0 -5 -12
-19 -27 -31 l-26 -20 28 -30 c41 -42 24 -48 -26 -9 l-42 33 39 33 c40 34 54
40 54 24z m86 -24 l37 -33 -42 -33 c-50 -40 -66 -33 -25 10 l29 30 -27 21
c-28 20 -36 38 -18 38 6 0 27 -15 46 -33z m429 -77 c-3 -5 -1 -10 4 -10 6 0
11 5 11 12 0 6 3 9 6 6 3 -4 0 -16 -6 -28 -10 -18 -14 -20 -21 -9 -12 19 -11
39 2 39 5 0 7 -4 4 -10z m-36 -9 c10 -7 11 -13 2 -30 -10 -17 -15 -19 -32 -11
-15 9 -17 15 -9 30 12 22 18 24 39 11z m108 -103 c-3 -8 -6 -5 -6 6 -1 11 2
17 5 13 3 -3 4 -12 1 -19z m22 -88 c1 -13 0 -13 -9 0 -5 8 -9 24 -9 35 l0 20
9 -20 c5 -11 9 -27 9 -35z m35 -220 l7 -25 -15 25 c-17 28 -21 50 -7 35 5 -6
12 -21 15 -35z m-305 -157 c-8 -24 -7 -37 2 -55 18 -32 19 -344 2 -367 -16
-21 -16 -47 1 -74 12 -19 12 -36 0 -117 -16 -107 -20 -120 -33 -120 -24 0 -35
256 -13 318 13 38 14 56 2 138 -12 89 -10 163 7 297 6 48 6 48 25 30 15 -16
17 -24 7 -50z m125 -631 c-6 -4 -14 -20 -18 -35 -4 -15 -11 -25 -15 -22 -5 3
-11 0 -13 -5 -6 -19 -68 0 -68 21 0 26 37 44 65 31 18 -8 25 -8 29 4 3 8 11
14 18 14 9 0 10 -3 2 -8z m-43 -106 c10 -13 31 -27 46 -31 15 -3 31 -12 35
-18 11 -17 10 -179 0 -173 -9 6 -20 -12 -48 -79 -9 -22 -18 -35 -21 -28 -2 7
5 33 17 59 11 27 17 51 12 56 -5 5 -21 -24 -37 -67 -24 -67 -46 -97 -60 -83
-2 2 2 26 11 53 19 65 25 96 15 91 -4 -3 -16 -32 -26 -66 -14 -46 -23 -60 -37
-60 -11 0 -17 -4 -14 -9 10 -16 -5 -39 -22 -37 -9 2 -15 7 -13 12 37 83 50
165 34 224 l-10 35 -11 -53 c-18 -82 -36 -117 -61 -119 -21 -2 -27 7 -14 21
11 10 32 97 33 131 0 17 12 48 26 70 64 96 108 118 145 71z m34 -4 c-3 -3 -11
0 -18 7 -9 10 -8 11 6 5 10 -3 15 -9 12 -12z m-1265 -228 c0 -27 -4 -43 -10
-39 -5 3 -10 24 -10 46 0 21 5 39 10 39 6 0 10 -21 10 -46z m227 -1716 c-3 -8
-6 -5 -6 6 -1 11 2 17 5 13 3 -3 4 -12 1 -19z m68 -57 c3 -6 -3 -14 -12 -20
-10 -6 -12 -11 -5 -11 6 0 12 -5 12 -10 0 -14 -50 -1 -72 18 -10 8 -15 19 -12
23 7 12 81 11 89 0z m922 -23 c-3 -8 -6 -5 -6 6 -1 11 2 17 5 13 3 -3 4 -12 1
-19z m-1002 -8 c14 -15 15 -20 4 -21 -8 0 -4 -4 9 -9 12 -5 22 -14 22 -19 0
-7 -9 -6 -25 1 -30 13 -43 5 -25 -16 10 -13 6 -15 -34 -14 -26 0 -49 5 -52 10
-9 14 4 22 18 11 8 -6 22 -7 33 -2 14 5 16 8 5 9 -8 2 -18 2 -21 2 -4 -1 -5 8
-2 19 4 15 8 17 20 8 10 -9 17 -9 24 -2 8 8 7 13 0 17 -13 8 -15 26 -3 26 5 0
17 -9 27 -20z m882 14 c-3 -3 -12 -4 -19 -1 -8 3 -5 6 6 6 11 1 17 -2 13 -5z
m6 -21 c-7 -2 -19 -2 -25 0 -7 3 -2 5 12 5 14 0 19 -2 13 -5z m-699 -18 c12
-9 42 -15 73 -15 l53 0 -16 -25 c-19 -28 -48 -32 -118 -13 -43 11 -46 11 -105
-26 -93 -57 -106 -40 -17 22 41 29 78 57 81 62 9 14 27 12 49 -5z m813 -27
c-3 -8 -6 -5 -6 6 -1 11 2 17 5 13 3 -3 4 -12 1 -19z m-85 2 c23 0 29 -4 24
-15 -3 -9 0 -15 9 -15 8 0 15 -4 15 -10 0 -5 -11 -10 -25 -10 -14 0 -25 -4
-25 -10 0 -5 9 -10 20 -10 11 0 20 -4 20 -9 0 -5 -8 -7 -18 -4 -12 3 -19 -1
-19 -11 0 -10 9 -16 24 -16 39 0 17 -17 -32 -24 -57 -9 -50 -26 8 -19 48 6 45
-5 -5 -17 l-33 -8 37 -1 c20 -1 39 -5 43 -10 3 -6 -26 -9 -70 -8 -41 1 -75 5
-75 10 0 4 14 7 30 7 44 0 37 20 -7 21 l-38 1 30 13 c21 9 25 15 15 18 -8 3
-22 8 -30 10 -8 3 2 6 23 6 21 1 36 -3 33 -8 -4 -5 2 -7 12 -4 32 8 22 30 -11
25 -20 -3 -28 -1 -23 6 3 6 -3 13 -16 15 -15 3 -14 4 5 2 15 -1 30 2 32 6 5 8
-43 23 -62 20 -7 -1 -13 3 -13 9 0 5 12 11 28 11 16 1 20 3 10 6 -10 2 -18 8
-18 13 0 10 39 19 58 14 8 -2 27 -4 44 -4z m-1035 -47 c4 -10 14 -24 22 -31
14 -12 13 -13 -6 -9 -28 6 -38 -19 -20 -47 14 -21 13 -21 -57 -24 -80 -3 -139
5 -131 18 3 4 37 21 76 35 50 19 67 30 58 36 -10 6 -6 9 13 9 20 0 26 4 22 15
-4 8 -1 15 5 15 7 0 15 -8 18 -17z m1124 -63 l-8 -65 -2 75 c-1 47 2 71 9 64
6 -6 6 -34 1 -74z m-1067 64 c9 -3 16 -10 16 -14 0 -10 -49 0 -56 11 -6 10 17
12 40 3z m835 -44 c0 -23 -1 -23 -9 -5 -5 11 -9 29 -9 40 -1 17 1 17 9 5 5 -8
9 -26 9 -40z m-556 13 c42 -6 46 -14 17 -43 -13 -13 -15 -20 -7 -21 20 -2 -36
-17 -63 -17 -23 -1 -23 0 -5 9 15 7 11 7 -15 3 -65 -11 -113 -28 -96 -34 8 -3
-12 -6 -47 -7 -58 -1 -63 0 -75 25 -10 21 -10 29 1 40 11 11 19 10 44 -5 l31
-17 68 42 c47 29 75 40 89 36 11 -3 37 -8 58 -11z m121 -43 c-5 -5 -25 -12
-44 -15 l-35 -6 35 14 c44 18 57 20 44 7z m712 -119 l7 -34 -31 23 c-35 26
-41 40 -17 40 8 0 15 5 15 12 0 23 20 -7 26 -41z m-88 3 l43 -28 -33 -18 c-41
-22 -129 -23 -168 -3 -17 9 -30 19 -30 23 1 4 17 19 38 34 46 34 89 32 150 -8z
m-188 17 c0 -5 -7 -14 -15 -21 -16 -14 -18 -10 -9 14 6 17 24 22 24 7z m279
-98 c-12 -15 -12 -16 4 -10 15 5 16 2 11 -21 -15 -62 -66 -85 -184 -86 -105 0
-145 17 -153 66 -6 43 -1 51 26 33 56 -36 213 -30 269 10 40 29 44 30 27 8z"/>
<path d="M2235 5080 c-50 -7 -65 -16 -65 -40 0 -10 -4 -22 -10 -25 -5 -3 -9
-16 -9 -28 1 -16 3 -17 6 -5 5 19 33 33 33 17 0 -6 6 -9 14 -6 8 3 17 -1 20
-9 7 -19 33 -18 45 4 9 15 12 15 20 2 6 -8 13 -11 18 -7 13 13 -14 42 -36 40
-12 -2 -20 1 -17 6 4 5 0 12 -6 14 -7 3 -2 6 12 6 14 1 35 -6 47 -14 25 -17
37 -7 20 16 -20 26 -50 36 -92 29z"/>
<path d="M1950 5060 c-26 -26 -27 -44 -1 -30 24 12 58 13 65 1 3 -5 -3 -11
-14 -14 -11 -3 -18 -1 -14 4 8 13 -10 11 -24 -3 -14 -14 -16 -48 -3 -48 5 0
11 6 14 13 3 8 9 7 19 -6 16 -21 48 -14 48 10 0 12 3 13 14 4 11 -9 15 -9 19
1 3 9 9 7 21 -7 13 -17 15 -18 16 -3 0 9 -7 23 -15 32 -8 8 -15 22 -15 30 0 9
-10 18 -22 20 -78 16 -89 15 -108 -4z"/>
<path d="M2090 4685 c0 -26 46 -41 75 -25 42 23 31 40 -25 40 -38 0 -50 -4
-50 -15z"/>
<path d="M2618 513 c7 -3 16 -2 19 1 4 3 -2 6 -13 5 -11 0 -14 -3 -6 -6z"/>
<path d="M2776 213 c-4 -5 -22 -13 -39 -20 -25 -9 -27 -12 -11 -12 18 -1 81
38 63 39 -3 0 -9 -3 -13 -7z"/>
<path d="M2490 205 c0 -17 76 -35 142 -33 l73 1 -85 7 c-47 3 -95 11 -107 18
-13 7 -23 10 -23 7z"/>
<path d="M1410 330 c8 -5 26 -10 39 -10 32 0 24 6 -19 14 -25 4 -31 3 -20 -4z"/>
<path d="M1708 333 c7 -3 16 -2 19 1 4 3 -2 6 -13 5 -11 0 -14 -3 -6 -6z"/>
<path d="M1958 333 c6 -2 18 -2 25 0 6 3 1 5 -13 5 -14 0 -19 -2 -12 -5z"/>
<path d="M1653 323 c9 -2 23 -2 30 0 6 3 -1 5 -18 5 -16 0 -22 -2 -12 -5z"/>
<path d="M1533 313 c15 -2 37 -2 50 0 12 2 0 4 -28 4 -27 0 -38 -2 -22 -4z"/>
<path d="M1770 295 c-85 -31 -66 -31 30 -1 41 14 66 24 55 24 -11 0 -49 -10
-85 -23z"/>
</g>
</svg>
